<?xml version="1.0" encoding="UTF-8" standalone="no"?>
<!-- Created with Inkscape (http://www.inkscape.org/) -->

<svg
   id="svg7379"
   version="1.1"
   inkscape:version="1.3.2 (091e20ef0f, 2023-11-25)"
   width="256"
   height="256"
   viewBox="0 0 240 240"
   sodipodi:docname="logo.svg"
   inkscape:export-filename="C:\Users\Patrick\Dropbox\Storage\CREATIVITY\FORUM - Thrive\Icons\thrivelogo.png"
   inkscape:export-xdpi="90"
   inkscape:export-ydpi="90"
   xml:space="preserve"
   xmlns:inkscape="http://www.inkscape.org/namespaces/inkscape"
   xmlns:sodipodi="http://sodipodi.sourceforge.net/DTD/sodipodi-0.dtd"
   xmlns:xlink="http://www.w3.org/1999/xlink"
   xmlns="http://www.w3.org/2000/svg"
   xmlns:svg="http://www.w3.org/2000/svg"
   xmlns:rdf="http://www.w3.org/1999/02/22-rdf-syntax-ns#"
   xmlns:cc="http://creativecommons.org/ns#"
   xmlns:dc="http://purl.org/dc/elements/1.1/"><metadata
     id="metadata7385"><rdf:RDF><cc:Work
         rdf:about=""><dc:format>image/svg+xml</dc:format><dc:type
           rdf:resource="http://purl.org/dc/dcmitype/StillImage" /></cc:Work></rdf:RDF></metadata><defs
     id="defs7383"><linearGradient
       id="linearGradient4806"
       inkscape:collect="always"><stop
         id="stop4802"
         offset="0"
         style="stop-color:#010101;stop-opacity:1;" /><stop
         id="stop4804"
         offset="1"
         style="stop-color:#202020;stop-opacity:1" /></linearGradient><linearGradient
       id="linearGradient4800"
       inkscape:collect="always"><stop
         style="stop-color:#ffffff;stop-opacity:0.88601035"
         offset="0"
         id="stop4796" /><stop
         id="stop4798"
         offset="1"
         style="stop-color:#d5d5d5;stop-opacity:0.27979276" /></linearGradient><linearGradient
       inkscape:collect="always"
       id="linearGradient4746"><stop
         style="stop-color:#717171;stop-opacity:1"
         offset="0"
         id="stop4742" /><stop
         style="stop-color:#505050;stop-opacity:0.17647059"
         offset="1"
         id="stop4744" /></linearGradient><linearGradient
       inkscape:collect="always"
       xlink:href="#linearGradient4806"
       id="linearGradient4780"
       gradientUnits="userSpaceOnUse"
       x1="4537.4624"
       y1="436.09006"
       x2="4537.4624"
       y2="876.71503"
       gradientTransform="translate(1150.8163)" /><radialGradient
       inkscape:collect="always"
       xlink:href="#linearGradient4746"
       id="radialGradient4782"
       gradientUnits="userSpaceOnUse"
       gradientTransform="matrix(1.3275752,0,0,1.3275752,-332.91872,-261.28027)"
       cx="4531.8716"
       cy="815.60028"
       fx="4531.8716"
       fy="815.60028"
       r="424.67841" /><radialGradient
       inkscape:collect="always"
       xlink:href="#linearGradient4800"
       id="radialGradient4784"
       gradientUnits="userSpaceOnUse"
       gradientTransform="matrix(1.8312195,0,0,1.5564629,-2617.3734,116.03612)"
       cx="4533.6914"
       cy="-59.754929"
       fx="4533.6914"
       fy="-59.754929"
       r="336.91406" /></defs><sodipodi:namedview
     pagecolor="#ffffff"
     bordercolor="#666666"
     borderopacity="1"
     objecttolerance="10"
     gridtolerance="10"
     guidetolerance="10"
     inkscape:pageopacity="0"
     inkscape:pageshadow="2"
     inkscape:window-width="1920"
     inkscape:window-height="1043"
     id="namedview7381"
     showgrid="false"
     inkscape:zoom="2.56"
     inkscape:cx="113.28125"
     inkscape:cy="145.11719"
     inkscape:window-x="0"
     inkscape:window-y="0"
     inkscape:window-maximized="1"
     inkscape:current-layer="g1"
     inkscape:snap-global="true"
     inkscape:object-paths="false"
     inkscape:snap-nodes="true"
     inkscape:snap-intersection-paths="false"
     inkscape:snap-smooth-nodes="false"
     inkscape:snap-midpoints="true"
     inkscape:snap-bbox="false"
     inkscape:showpageshadow="2"
     inkscape:pagecheckerboard="0"
     inkscape:deskcolor="#d1d1d1" /><g
     id="g1"
     transform="matrix(0.25974026,0,0,0.25974026,-1353.8833,5.2688162)"
     style="display:inline;opacity:1"
     inkscape:label="logo"
     sodipodi:insensitive="true"><g
       id="g5"
       inkscape:label="Base"
       sodipodi:insensitive="true"><circle
         inkscape:export-ydpi="102.13403"
         inkscape:export-xdpi="102.13403"
         style="display:inline;fill:url(#linearGradient4780);fill-opacity:1;stroke:none;stroke-width:1.01673"
         id="circle4762"
         cx="5674.4507"
         cy="441.71506"
         r="451.17188"
         transform="translate(-1.2500001e-5)"
         inkscape:label="Main Circle"
         sodipodi:insensitive="true" /><circle
         inkscape:export-ydpi="102.13403"
         inkscape:export-xdpi="102.13403"
         r="424.67841"
         cy="438.24396"
         cx="5677.2666"
         id="circle4764"
         style="display:inline;opacity:0.615;fill:url(#radialGradient4782);fill-opacity:1;stroke:none;stroke-width:5.31496;stroke-linecap:round;stroke-miterlimit:4;stroke-dasharray:none;stroke-dashoffset:0;stroke-opacity:1;paint-order:normal"
         transform="translate(-1.2500001e-5)"
         inkscape:label="Shaded Circle"
         sodipodi:insensitive="true" /><ellipse
         inkscape:export-ydpi="102.13403"
         inkscape:export-xdpi="102.13403"
         ry="256.80716"
         rx="360.1564"
         cy="275.13928"
         cx="5680.1133"
         id="ellipse4766"
         style="display:inline;opacity:0.801;fill:url(#radialGradient4784);fill-opacity:1;stroke:none;stroke-width:5.31496;stroke-linecap:round;stroke-miterlimit:4;stroke-dasharray:none;stroke-dashoffset:0;stroke-opacity:1;paint-order:normal"
         transform="translate(-1.2500001e-5)"
         inkscape:label="Highlight"
         sodipodi:insensitive="true" /></g><g
       id="g4"
       inkscape:label="Folice"
       sodipodi:insensitive="true"><path
         style="display:inline;opacity:0.436;fill:#000000;fill-opacity:1;fill-rule:evenodd;stroke:none;stroke-width:1px;stroke-linecap:butt;stroke-linejoin:miter;stroke-opacity:1"
         d="m 5644.2107,57.056974 -50.9838,8.2159 -100.1001,43.421596 -62.6459,52.0386 12.8924,0.445 c -62.2971,50.5903 -117.3421,131.1065 -132.1875,259.1729 l -21.3372,9.7119 18.75,18.75 c 0,0 38.9041,0.6982 38.974,0 32.2762,-322.6987 315.3881,-373.005896 315.3881,-373.005896 z"
         transform="translate(-1.2500001e-5)"
         id="path4787"
         inkscape:label="Folice Shadow"
         sodipodi:insensitive="true" /><path
         inkscape:export-ydpi="102.13403"
         inkscape:export-xdpi="102.13403"
         sodipodi:nodetypes="sscs"
         inkscape:connector-curvature="0"
         id="path4768"
         d="m 5289.8486,430.06287 c 0,0 38.9044,0.69813 38.9743,0 32.2762,-322.69874 315.3876,-373.005837 315.3876,-373.005837 0,0 -330.5592,10.643843 -354.3619,373.005837 z"
         style="display:inline;fill:#ffffff;fill-opacity:1;fill-rule:evenodd;stroke:none;stroke-width:1px;stroke-linecap:butt;stroke-linejoin:miter;stroke-opacity:1"
         inkscape:label="Folice Highlight"
         sodipodi:insensitive="true" /></g><g
       id="g2"
       inkscape:label="Gear"
       sodipodi:insensitive="true"><path
         style="display:inline;opacity:0.436;fill:#000000;fill-opacity:1;fill-rule:evenodd;stroke:none;stroke-width:1px;stroke-linecap:butt;stroke-linejoin:miter;stroke-opacity:1"
         d="m 6073.5455,432.52197 -33.5871,11.1274 -2.3437,33.2812 2.1094,22.0313 6.7803,2.1277 c -0.3415,2.1191 -0.7128,4.2923 -1.1059,6.5112 l -15.2838,6.3611 -10.5469,56.7187 9.0546,1.5784 c -0.4148,1.1935 -0.8443,2.3936 -1.2744,3.5943 l -17.6239,3.2648 -21.5625,49.9219 10.0708,9.4427 c -0.6421,1.0941 -1.2796,2.1885 -1.9373,3.2813 l -21.4929,1.1041 -34.9219,46.1719 9.1681,13.6084 c -0.2396,0.2412 -0.4698,0.4862 -0.7105,0.7269 -2.4297,2.4297 -4.8712,4.7876 -7.3168,7.1137 l -7.9377,-9.2615 -4.6875,7.0312 -114.8437,71.4844 -74.5313,24.6094 3.1678,6.8646 c -1.9411,0.3333 -3.811,0.6323 -5.6635,0.9192 l 0.8551,-12.7057 -60.2344,10.0781 -5.2807,28.3796 18.75,18.75 h 11.0614 l 0.877,-21.5937 32.1076,-3.7774 -0.4724,0.8276 18.75,18.75 c 0,0 8.439,1.1166 13.3612,0.042 3.5141,-0.7674 11.7444,-4.7827 11.7444,-4.7827 l -2.1057,-22.4707 38.8604,-11.1749 17.6697,17.6715 c 0,0 9.1328,-2.069 13.3411,-4.0393 3.616,-1.693 10.0067,-6.5827 10.0067,-6.5827 l -6.9342,-20.0134 39.2889,-21.1047 16.1005,16.1004 c 0,0 8.0764,-3.8264 11.7627,-6.3208 3.0965,-2.0953 8.6023,-7.1979 8.6023,-7.1979 l -11.2354,-18.9605 37.0423,-31.4246 16.679,14.22 c 0,0 7.7551,-5.4264 11.0596,-8.7781 2.4901,-2.5255 6.4966,-8.4265 6.4966,-8.4265 l -13.8703,-16.853 15.976,-21.0682 15.976,-20.0134 19.8376,9.4812 c 0,0 5.1954,-6.3635 7.3737,-9.8327 1.9624,-3.1255 5.0921,-9.831 5.0921,-9.831 l -16.593,-16.593 18.6987,-36.0736 20.8924,6.8463 c 0,0 4.5422,-7.3993 6.145,-11.4111 1.4853,-3.7177 3.1586,-11.5869 3.1586,-11.5869 l -17.8217,-17.8235 9.3951,-35.0208 21.9452,2.2834 c 0,0 3.0703,-6.5398 3.7903,-10.904 0.5336,-3.2339 0.423,-11.5686 0.423,-11.5686 l -18.75,-18.75 -1.3202,0.5493 2.3383,-33.413 24.5196,-1.9318 0.4102,-12.8156 z"
         transform="translate(-1.2500001e-5)"
         id="path2"
         inkscape:label="Gear Shadow"
         sodipodi:insensitive="true" /><path
         inkscape:export-ydpi="102.13403"
         inkscape:export-xdpi="102.13403"
         sodipodi:nodetypes="ccsccccccsccccsccccsccccscccccsccccaccccsccccc"
         inkscape:connector-curvature="0"
         id="path4770"
         d="m 6073.5462,432.52069 h -41.0809 c 0,0 1.2086,148.01693 -102.8779,252.10343 -118.5862,118.58622 -257.7213,112.35807 -257.7213,112.35807 v 40.90536 h 11.0602 l 0.8778,-21.59382 44.7677,-5.26678 5.6179,21.06714 c 0,0 8.438,1.11749 13.3602,0.0426 3.5141,-0.76741 11.7448,-4.78271 11.7448,-4.78271 l -2.1067,-22.47161 46.6657,-13.41723 9.8645,19.91293 c 0,0 9.1342,-2.06754 13.3425,-4.03787 3.616,-1.69304 10.0069,-6.58348 10.0069,-6.58348 l -6.9346,-20.01378 41.3442,-22.20828 14.0448,17.20483 c 0,0 8.0762,-3.82571 11.7625,-6.32014 3.0965,-2.09534 8.6024,-7.19794 8.6024,-7.19794 l -11.2358,-18.96042 37.043,-31.42515 16.6782,14.22032 c 0,0 7.7557,-5.42633 11.0602,-8.77798 2.4901,-2.52552 6.4957,-8.42685 6.4957,-8.42685 l -13.8692,-16.85371 15.976,-21.06714 15.9759,-20.01378 19.8382,9.48021 c 0,0 5.1952,-6.36209 7.3735,-9.83133 1.9624,-3.12546 5.0912,-9.83133 5.0912,-9.83133 l -17.7315,-14.39588 19.8382,-38.27197 20.8916,6.84682 c 0,0 4.5418,-7.39953 6.1446,-11.41137 1.4853,-3.71764 3.1601,-11.58692 3.1601,-11.58692 l -20.0138,-9.65578 11.5869,-43.18763 21.9449,2.28227 c 0,0 3.0695,-6.53815 3.7896,-10.90233 0.5336,-3.23391 0.4239,-11.56928 0.4239,-11.56928 l -20.8916,-6.4957 3.1601,-45.11879 24.518,-1.93116 z"
         style="display:inline;fill:#ffffff;fill-opacity:1;fill-rule:evenodd;stroke:none;stroke-width:1px;stroke-linecap:butt;stroke-linejoin:miter;stroke-opacity:1"
         inkscape:label="Gear Highlight"
         sodipodi:insensitive="true" /></g><g
       id="g3"
       inkscape:label="T"
       sodipodi:insensitive="true"><path
         style="display:inline;opacity:0.436;fill:#000000;fill-opacity:1;fill-rule:evenodd;stroke:none;stroke-width:1px;stroke-linecap:butt;stroke-linejoin:miter;stroke-opacity:1"
         d="m 5904.0612,286.04677 -12.9053,2.9224 -5.5938,-2.7979 h -372.4585 l -37.2455,18.6237 v 9.6167 l -18.7518,8.8788 18.7445,18.7427 0.01,-0.01 v 0.015 H 5662.09 v 313.4729 l -18.739,2.9937 18.739,18.7336 v 0.013 l 37.2455,18.6218 h 37.2455 v -353.8352 h 186.2295 v -37.2455 -0.011 z"
         transform="translate(-1.2500001e-5)"
         id="path1"
         inkscape:label="T Shadow"
         sodipodi:insensitive="true" /><path
         style="font-size:75px;line-height:1.25;font-family:Thrive;-inkscape-font-specification:Thrive;letter-spacing:0px;word-spacing:0px;fill:#ffffff;stroke-width:1px"
         d="m 216.06934,378.96533 h 46.25244 v 6.22559 H 242.9126 v 48.4497 h -7.43408 v -48.4497 h -19.40918 z"
         id="flowRoot4778"
         transform="matrix(7.9457718,0,0,7.9457718,3738.5244,-2752.7324)"
         aria-label="T"
         inkscape:label="T Highlight"
         sodipodi:insensitive="true" /></g></g></svg>
